<svg width="300" height="120" viewBox="0 0 300 120" fill="none" xmlns="http://www.w3.org/2000/svg">
<path d="M130.335 91.6259L130.454 91.9573L133.521 100.517C133.521 100.517 133.521 100.517 133.521 100.517L130.335 91.6259ZM130.335 91.6259H129.983M130.335 91.6259H129.983M129.983 91.6259H129.979H129.661L129.526 91.914L127.524 96.1917C127.481 96.2829 127.389 96.3227 127.299 96.297C124.122 95.3911 108.088 91.2544 92.289 94.8669L92.2874 94.8673C92.2267 94.8814 92.1731 94.8676 92.1309 94.8333C91.9995 94.7255 91.8428 94.5881 91.6617 94.4292C90.5502 93.4546 88.517 91.6718 85.7531 90.9594C82.4718 90.1135 78.2605 90.7813 73.335 95.5791L73.3349 95.5791L73.3303 95.5837C73.2857 95.6283 73.2226 95.6477 73.1555 95.6328M129.983 91.6259L17.7801 56.3821M17.7801 56.3821L17.714 57.0373L17.3216 60.9233L17.3213 60.9264C17.3178 60.9594 17.3218 60.9797 17.3282 60.9963L17.332 61.0062L17.3319 61.0063L32.9995 104.489L32.9997 104.49C33.0399 104.602 33.167 104.647 33.2646 104.595L33.2675 104.594C35.2912 103.527 41.4462 100.431 48.9888 98.0279C56.5158 95.6299 65.5022 93.8967 73.1555 95.6328M17.7801 56.3821L17.1312 56.4944M17.7801 56.3821L17.1312 56.4944M73.1555 95.6328L73.045 96.1199L73.155 95.6326C73.1552 95.6327 73.1553 95.6327 73.1555 95.6328ZM17.1312 56.4944L12.4917 57.2975C11.7559 57.4212 11.3208 58.1816 11.5709 58.8751C11.5709 58.8753 11.571 58.8755 11.5711 58.8757L30.0364 110.356L17.1312 56.4944ZM90.846 97.6524C84.9646 90.508 77.256 94.764 74.7376 98.2128L91.5298 97.8952C91.2757 97.9513 91.0141 97.8541 90.846 97.6524ZM32.5291 104.658C32.671 105.055 33.1306 105.234 33.5006 105.036C37.5211 102.917 58.0051 92.7089 73.0449 96.1204C73.2766 96.1727 73.5157 96.1054 73.6838 95.9373L32.5291 104.658Z" fill="#BEC2FF" stroke="#BEC2FF" stroke-miterlimit="10"/>
<path d="M23.8558 50.396L17.6717 52.836L16.8086 61.0266L32.8012 105.41C32.8012 105.41 57.0031 92.3654 73.4142 96.2028C73.4142 96.2028 82.7258 85.4228 92.0934 95.4256C109.73 91.0426 127.726 96.9427 127.726 96.9427L132.198 87.392L128.626 83.5283" fill="white"/>
<path d="M23.8558 50.396L17.6717 52.836L16.8086 61.0266L32.8012 105.41C32.8012 105.41 57.0031 92.3654 73.4142 96.2028C73.4142 96.2028 82.7258 85.4228 92.0934 95.4256C109.73 91.0426 127.726 96.9427 127.726 96.9427L132.198 87.392L128.626 83.5283" stroke="#2A2A2E" stroke-width="2.2" stroke-miterlimit="10" stroke-linejoin="round"/>
<path d="M17.6719 52.8357L33.231 96.2549L32.8013 105.413" fill="white"/>
<path d="M17.6719 52.8357L33.231 96.2549L32.8013 105.413" stroke="#2A2A2E" stroke-width="2.2" stroke-miterlimit="10" stroke-linejoin="round"/>
<path d="M33.2383 96.2067C33.2383 96.2067 50.4972 83.131 81.7051 90.1856" stroke="#2A2A2E" stroke-width="2.2" stroke-miterlimit="10" stroke-linejoin="round"/>
<path d="M81.8966 90.0338C78.5486 79.9898 73.2165 62.0467 70.5859 53.6768C85.6519 39.3283 112.992 40.8416 112.992 40.8416L131.885 77.4303C121.81 75.7893 97.361 77.5625 81.8966 90.0338Z" fill="white" stroke="#2A2A2E" stroke-width="2.2" stroke-miterlimit="10" stroke-linejoin="round"/>
<path d="M127.5 77L132.96 84.5669C132.96 84.5669 109.091 77.1336 81.7051 90.1855C92 81.5 112 76 127.5 77Z" fill="white" stroke="#2A2A2E" stroke-width="2.2" stroke-miterlimit="10" stroke-linejoin="round"/>
<path d="M108.913 84.5648C108.307 84.6098 107.852 85.1375 107.897 85.7433C107.942 86.3491 108.47 86.8037 109.076 86.7587L108.913 84.5648ZM132.195 87.3955C132.517 86.3438 132.517 86.3437 132.516 86.3436C132.516 86.3436 132.516 86.3435 132.516 86.3434C132.515 86.3432 132.514 86.3429 132.513 86.3426C132.511 86.3421 132.509 86.3413 132.506 86.3404C132.5 86.3387 132.492 86.3362 132.482 86.3332C132.461 86.327 132.432 86.3184 132.393 86.3074C132.317 86.2855 132.207 86.2543 132.062 86.2156C131.773 86.138 131.35 86.03 130.8 85.9045C129.7 85.6535 128.093 85.3325 126.042 85.0455C121.941 84.4715 116.062 84.0332 108.913 84.5648L109.076 86.7587C116.047 86.2403 121.768 86.6688 125.737 87.2243C127.721 87.5019 129.267 87.8112 130.311 88.0494C130.832 88.1685 131.229 88.2697 131.492 88.3403C131.623 88.3756 131.721 88.4032 131.785 88.4216C131.817 88.4308 131.84 88.4376 131.855 88.442C131.862 88.4441 131.867 88.4457 131.87 88.4465C131.871 88.447 131.872 88.4473 131.873 88.4474C131.873 88.4474 131.873 88.4474 131.873 88.4474C131.873 88.4474 131.873 88.4473 131.873 88.4473C131.872 88.4473 131.872 88.4472 132.195 87.3955Z" fill="#2A2A2E"/>
<path d="M81.8966 90.0337C81.8966 90.0337 54.4027 77.4339 35.9888 87.2387C29.2929 75.0425 24.7492 46.3455 19.0098 39.8887C37.1845 31.5187 70.5859 53.6804 70.5859 53.6804L81.8966 90.0374V90.0337Z" fill="white" stroke="#2A2A2E" stroke-width="2.2" stroke-miterlimit="10" stroke-linejoin="round"/>
<path d="M81.499 89.5C75.5499 78.1798 66.0752 66.2147 48.1767 66.2147C46.6518 66.2147 45.081 66.3098 43.5 66.4973C45.999 53.5 45.9987 26 44.1196 13C55.999 16.5 63.2472 33.1688 70.8641 52.3484C74.1995 62.0114 79.6834 83.4262 81.499 89.5Z" fill="white" stroke="#2A2A2E" stroke-width="2.2" stroke-linejoin="round"/>
<mask id="mask0_6316_29380" style="mask-type:alpha" maskUnits="userSpaceOnUse" x="40" y="8" width="82" height="82">
<circle cx="81" cy="49" r="41" fill="#D9D9D9"/>
</mask>
<g mask="url(#mask0_6316_29380)">
<mask id="mask1_6316_29380" style="mask-type:alpha" maskUnits="userSpaceOnUse" x="40" y="39" width="94" height="56">
<path d="M53 93.5C53 93.5 44.1306 76.37 41.5 68C52.9533 65.0443 64.0142 54.074 72 52C86 48.3641 101.041 42.5187 113.407 41.0459C119 51.9999 132.299 77.6346 132.299 77.6346C122.224 75.9936 53 93.5 53 93.5Z" fill="white" stroke="#2A2A2E" stroke-width="2.2" stroke-miterlimit="10" stroke-linejoin="round"/>
</mask>
<g mask="url(#mask1_6316_29380)">
<path d="M96.1068 5.05338C96.0543 4.78227 95.792 4.60506 95.5209 4.65756L80.78 7.51204C80.6499 7.53725 80.535 7.61315 80.4608 7.72303C80.3865 7.83292 80.359 7.96779 80.3842 8.09798L80.6979 9.71789C80.7504 9.98899 81.0127 10.1662 81.2838 10.1137L96.0247 7.25923C96.1549 7.23402 96.2697 7.15812 96.344 7.04824C96.4182 6.93835 96.4457 6.80348 96.4205 6.67329L96.1068 5.05338ZM93.4491 11.2429C93.4165 10.9687 93.1678 10.7728 92.8936 10.8054L84.7693 11.7716C84.6376 11.7872 84.5175 11.8545 84.4355 11.9587C84.3535 12.0629 84.3162 12.1954 84.3318 12.3271L84.5267 13.9656C84.5593 14.2398 84.808 14.4356 85.0822 14.403L93.2065 13.4369C93.3382 13.4212 93.4583 13.3539 93.5403 13.2497C93.6223 13.1455 93.6596 13.013 93.644 12.8813L93.4491 11.2429ZM96.2409 18.348C96.2359 18.2155 96.1784 18.0904 96.0811 18.0003C95.9838 17.9102 95.8547 17.8624 95.7222 17.8675L88.8275 18.1309C88.695 18.136 88.5699 18.1935 88.4798 18.2908C88.3897 18.3881 88.3419 18.5172 88.347 18.6497L88.41 20.2985C88.4205 20.5744 88.6528 20.7896 88.9287 20.779L95.8234 20.5155C96.0993 20.505 96.3145 20.2727 96.3039 19.9968L96.2409 18.348ZM101.331 24.6407C101.343 24.3648 101.13 24.131 100.854 24.1185L86.3913 23.4597C86.2589 23.4537 86.1294 23.5005 86.0315 23.5899C85.9335 23.6793 85.8751 23.804 85.8691 23.9365L85.794 25.5847C85.7814 25.8606 85.9949 26.0944 86.2707 26.107L100.733 26.7657C100.866 26.7717 100.995 26.7249 101.093 26.6355C101.191 26.5461 101.25 26.4214 101.256 26.289L101.331 24.6407ZM100.932 32.2165C100.97 31.9429 100.778 31.6908 100.505 31.6534L85.8223 29.6479C85.691 29.63 85.5578 29.665 85.4522 29.7452C85.3466 29.8254 85.2772 29.9443 85.2593 30.0757L85.036 31.7105C84.9986 31.9841 85.1901 32.2362 85.4637 32.2736L100.146 34.279C100.277 34.297 100.411 34.262 100.516 34.1818C100.622 34.1015 100.691 33.9827 100.709 33.8513L100.932 32.2165ZM95.8182 38.7617C95.8484 38.6325 95.8261 38.4967 95.7562 38.384C95.6862 38.2714 95.5744 38.1911 95.4453 38.1609L87.8772 36.3896C87.6084 36.3267 87.3394 36.4937 87.2765 36.7625L86.9004 38.3691C86.8702 38.4982 86.8925 38.6341 86.9625 38.7467C87.0324 38.8594 87.1442 38.9397 87.2733 38.9699L94.8414 40.7411C95.1103 40.8041 95.3793 40.6371 95.4422 40.3682L95.8182 38.7617ZM97.4914 54.4818C97.5462 54.3611 97.5508 54.2235 97.5042 54.0993C97.4576 53.9752 97.3636 53.8746 97.2429 53.8198L84.6392 48.0962C84.5185 48.0414 84.3809 48.0368 84.2568 48.0834C84.1326 48.13 84.0321 48.224 83.9772 48.3447L83.295 49.8471C83.1808 50.0985 83.2921 50.3949 83.5435 50.5091L96.1471 56.2327C96.3986 56.3469 96.695 56.2356 96.8091 55.9842L97.4914 54.4818ZM96.1939 62.0422C96.2602 61.9274 96.2782 61.7909 96.244 61.6628C96.2097 61.5347 96.1259 61.4255 96.0111 61.3591L81.3141 52.8689C81.075 52.7307 80.7692 52.8126 80.6311 53.0517L79.8057 54.4804C79.7394 54.5953 79.7214 54.7317 79.7557 54.8598C79.79 54.9879 79.8737 55.0972 79.9885 55.1635L94.6855 63.6538C94.8003 63.7201 94.9368 63.7381 95.0649 63.7038C95.193 63.6695 95.3022 63.5858 95.3686 63.4709L96.1939 62.0422ZM88.4179 65.0976C88.495 64.9897 88.5261 64.8556 88.5043 64.7248C88.4826 64.594 88.4097 64.4772 88.3019 64.4001L79.5774 58.1641C79.3527 58.0036 79.0404 58.0555 78.8799 58.2802L77.9204 59.6225C77.8433 59.7304 77.8122 59.8645 77.8339 59.9953C77.8557 60.1261 77.9285 60.2429 78.0364 60.32L86.7609 66.556C86.9856 66.7166 87.2978 66.6646 87.4584 66.44L88.4179 65.0976ZM76.644 72.2749C76.7393 72.1826 76.7939 72.0563 76.796 71.9237C76.7981 71.7911 76.7475 71.6631 76.6552 71.5679L70.7413 65.4637C70.5492 65.2653 70.2326 65.2603 70.0343 65.4525L68.8492 66.6006C68.754 66.6928 68.6993 66.8192 68.6972 66.9518C68.6951 67.0844 68.7458 67.2124 68.838 67.3076L74.7519 73.4118C74.9441 73.6101 75.2606 73.6151 75.459 73.423L76.644 72.2749ZM72.984 78.0309C73.1971 77.8553 73.2276 77.5402 73.052 77.3271L64.8399 67.3583C64.6643 67.1452 64.3492 67.1147 64.1361 67.2903L62.8625 68.3394C62.7602 68.4237 62.6955 68.5453 62.6828 68.6773C62.67 68.8093 62.7102 68.9409 62.7945 69.0433L71.0067 79.012C71.091 79.1143 71.2125 79.179 71.3445 79.1918C71.4765 79.2045 71.6081 79.1643 71.7105 79.08L72.984 78.0309ZM66.302 79.7278C66.5277 79.5687 66.5817 79.2568 66.4226 79.031L60.6551 70.8482C60.496 70.6225 60.1841 70.5685 59.9583 70.7276L58.6097 71.6781C58.5013 71.7545 58.4277 71.8709 58.4051 72.0015C58.3824 72.1322 58.4127 72.2665 58.489 72.3749L64.2566 80.5577C64.333 80.6661 64.4493 80.7397 64.58 80.7624C64.7106 80.785 64.8449 80.7548 64.9533 80.6784L66.302 79.7278ZM52.7279 85.9091C52.9792 85.7946 53.0901 85.4981 52.9756 85.2468L46.5932 71.2379C46.5383 71.1172 46.4376 71.0233 46.3134 70.9768C46.1892 70.9304 46.0516 70.9352 45.9309 70.9901L44.4294 71.6742C44.1781 71.7887 44.0672 72.0852 44.1817 72.3365L50.564 86.3455C50.619 86.4661 50.7197 86.56 50.8439 86.6065C50.9681 86.6529 51.1057 86.6482 51.2263 86.5932L52.7279 85.9091ZM55.3237 82.2105C55.4411 82.1489 55.5292 82.0431 55.5687 81.9165C55.6081 81.7899 55.5957 81.6529 55.534 81.5354L50.4252 71.8009C50.2969 71.5564 49.9947 71.4622 49.7502 71.5905L48.2891 72.3573C48.1717 72.4189 48.0836 72.5247 48.0441 72.6513C48.0047 72.7779 48.0171 72.915 48.0788 73.0324L53.1876 82.7669C53.3159 83.0114 53.6181 83.1056 53.8626 82.9773L55.3237 82.2105Z" fill="url(#paint0_linear_6316_29380)" stroke="white" stroke-miterlimit="10" stroke-linejoin="round"/>
<mask id="path-15-outside-1_6316_29380" maskUnits="userSpaceOnUse" x="42.1211" y="-0.5" width="59" height="93" fill="black">
<rect fill="white" x="42.1211" y="-0.5" width="59" height="93"/>
<path fill-rule="evenodd" clip-rule="evenodd" d="M96.1616 1.5C96.8906 1.50098 97.4808 2.09276 97.4798 2.82177C97.4768 5.07564 96.9295 7.13224 96.1087 9.06333C95.1424 11.337 93.7699 13.4921 92.4334 15.5906L92.3921 15.6554C89.3161 20.4828 86.3634 25.1878 87.0295 31.7945C87.1965 33.4516 87.8636 35.2909 88.8604 37.3023C89.8405 39.2799 91.0888 41.3276 92.3799 43.4455L92.4351 43.5361L92.4532 43.5657C94.3527 46.6713 96.3571 49.9486 97.4716 53.0733C98.5953 56.2239 98.917 59.5084 97.0434 62.4162C95.473 64.854 92.5733 65.9499 89.4812 66.5013C86.3497 67.0597 82.6416 67.1204 79.0624 67.1785C76.3509 67.2226 73.6985 67.2701 71.2884 67.5089C68.8667 67.7489 66.8049 68.1732 65.2452 68.911C60.0609 71.3632 58.5298 75.2462 56.9836 79.2723L56.9821 79.2762L56.9407 79.383C56.134 81.4639 55.2697 83.6935 53.7877 85.5336C52.2269 87.4713 50.0368 88.9229 46.696 89.5799C45.9807 89.7205 45.2868 89.2547 45.1461 88.5394C45.0055 87.824 45.4713 87.1301 46.1867 86.9895C48.9501 86.4461 50.5806 85.3067 51.7316 83.8776C52.9357 82.3826 53.6702 80.515 54.5201 78.323C54.5203 78.3226 54.5205 78.3222 54.5206 78.3218L54.5304 78.2962C56.0851 74.2481 57.927 69.4521 64.1163 66.5245C66.0845 65.5935 68.502 65.1322 71.0281 64.8818C73.5658 64.6303 76.3295 64.5826 79.0196 64.5388C82.6572 64.4798 86.1366 64.4161 89.0177 63.9023C91.9384 63.3814 93.8766 62.4572 94.824 60.9865C96.0537 59.0783 95.9875 56.7709 94.985 53.9601C93.977 51.1338 92.1267 48.0915 90.1819 44.9119L90.0949 44.7692C88.827 42.6895 87.5269 40.5569 86.4949 38.4745C85.4423 36.3505 84.6164 34.1788 84.4028 32.0593C83.6386 24.4797 87.0841 19.0726 90.1149 14.3164L90.1653 14.2373C90.1654 14.2372 90.1653 14.2374 90.1653 14.2373C91.5397 12.0791 92.8037 10.0902 93.6791 8.03067C94.3997 6.33529 94.8374 4.63243 94.8398 2.81823C94.8408 2.08921 95.4326 1.49902 96.1616 1.5Z"/>
</mask>
<path fill-rule="evenodd" clip-rule="evenodd" d="M96.1616 1.5C96.8906 1.50098 97.4808 2.09276 97.4798 2.82177C97.4768 5.07564 96.9295 7.13224 96.1087 9.06333C95.1424 11.337 93.7699 13.4921 92.4334 15.5906L92.3921 15.6554C89.3161 20.4828 86.3634 25.1878 87.0295 31.7945C87.1965 33.4516 87.8636 35.2909 88.8604 37.3023C89.8405 39.2799 91.0888 41.3276 92.3799 43.4455L92.4351 43.5361L92.4532 43.5657C94.3527 46.6713 96.3571 49.9486 97.4716 53.0733C98.5953 56.2239 98.917 59.5084 97.0434 62.4162C95.473 64.854 92.5733 65.9499 89.4812 66.5013C86.3497 67.0597 82.6416 67.1204 79.0624 67.1785C76.3509 67.2226 73.6985 67.2701 71.2884 67.5089C68.8667 67.7489 66.8049 68.1732 65.2452 68.911C60.0609 71.3632 58.5298 75.2462 56.9836 79.2723L56.9821 79.2762L56.9407 79.383C56.134 81.4639 55.2697 83.6935 53.7877 85.5336C52.2269 87.4713 50.0368 88.9229 46.696 89.5799C45.9807 89.7205 45.2868 89.2547 45.1461 88.5394C45.0055 87.824 45.4713 87.1301 46.1867 86.9895C48.9501 86.4461 50.5806 85.3067 51.7316 83.8776C52.9357 82.3826 53.6702 80.515 54.5201 78.323C54.5203 78.3226 54.5205 78.3222 54.5206 78.3218L54.5304 78.2962C56.0851 74.2481 57.927 69.4521 64.1163 66.5245C66.0845 65.5935 68.502 65.1322 71.0281 64.8818C73.5658 64.6303 76.3295 64.5826 79.0196 64.5388C82.6572 64.4798 86.1366 64.4161 89.0177 63.9023C91.9384 63.3814 93.8766 62.4572 94.824 60.9865C96.0537 59.0783 95.9875 56.7709 94.985 53.9601C93.977 51.1338 92.1267 48.0915 90.1819 44.9119L90.0949 44.7692C88.827 42.6895 87.5269 40.5569 86.4949 38.4745C85.4423 36.3505 84.6164 34.1788 84.4028 32.0593C83.6386 24.4797 87.0841 19.0726 90.1149 14.3164L90.1653 14.2373C90.1654 14.2372 90.1653 14.2374 90.1653 14.2373C91.5397 12.0791 92.8037 10.0902 93.6791 8.03067C94.3997 6.33529 94.8374 4.63243 94.8398 2.81823C94.8408 2.08921 95.4326 1.49902 96.1616 1.5Z" fill="url(#paint1_linear_6316_29380)"/>
<path d="M64.3412 69.3386C64.5774 69.8378 65.1736 70.0511 65.6728 69.815C66.1721 69.5788 66.3853 68.9826 66.1492 68.4834L64.3412 69.3386ZM65.5847 67.2901C65.3486 66.7909 64.7524 66.5776 64.2532 66.8138C63.7539 67.0499 63.5406 67.6461 63.7768 68.1454L65.5847 67.2901ZM63.7768 68.1454L64.3412 69.3386L66.1492 68.4834L65.5847 67.2901L63.7768 68.1454ZM97.4798 2.82177L95.4798 2.81909L95.4798 2.81909L97.4798 2.82177ZM96.1616 1.5L96.1643 -0.499997L96.1616 1.5ZM96.1087 9.06333L97.9494 9.84565L97.9494 9.84565L96.1087 9.06333ZM92.4334 15.5906L94.1203 16.665L94.1203 16.665L92.4334 15.5906ZM92.3921 15.6554L94.0788 16.7302L94.079 16.7298L92.3921 15.6554ZM87.0295 31.7945L89.0194 31.594L89.0194 31.5939L87.0295 31.7945ZM88.8604 37.3023L90.6524 36.4142L90.6524 36.4142L88.8604 37.3023ZM92.3799 43.4455L90.6722 44.4866L90.6722 44.4866L92.3799 43.4455ZM92.4351 43.5361L90.7274 44.5772L90.729 44.5798L92.4351 43.5361ZM92.4532 43.5657L94.1594 42.5222L94.1593 42.522L92.4532 43.5657ZM97.4716 53.0733L99.3554 52.4014L99.3554 52.4014L97.4716 53.0733ZM97.0434 62.4162L95.3622 61.3329L95.3621 61.3331L97.0434 62.4162ZM89.4812 66.5013L89.1301 64.5323L89.1301 64.5323L89.4812 66.5013ZM79.0624 67.1785L79.03 65.1788L79.0299 65.1788L79.0624 67.1785ZM71.2884 67.5089L71.4857 69.4992L71.4857 69.4992L71.2884 67.5089ZM65.2452 68.911L66.1004 70.7189L66.1004 70.7189L65.2452 68.911ZM56.9836 79.2723L58.8494 79.9927L58.8506 79.9893L56.9836 79.2723ZM56.9821 79.2762L58.8468 79.9991L58.8478 79.9966L56.9821 79.2762ZM56.9407 79.383L55.0759 78.6601L55.0759 78.6601L56.9407 79.383ZM53.7877 85.5336L55.3453 86.7881L55.3453 86.7881L53.7877 85.5336ZM46.696 89.5799L46.3101 87.6174L46.3101 87.6174L46.696 89.5799ZM45.1461 88.5394L47.1086 88.1535L47.1086 88.1535L45.1461 88.5394ZM46.1867 86.9895L45.8008 85.0271L45.8008 85.0271L46.1867 86.9895ZM51.7316 83.8776L53.2892 85.1321L53.2892 85.1321L51.7316 83.8776ZM54.5201 78.323L52.6561 77.5984L52.6554 77.6L54.5201 78.323ZM54.5206 78.3218L56.3848 79.0465L56.3878 79.0384L54.5206 78.3218ZM54.5304 78.2962L52.6634 77.5792L52.6632 77.5796L54.5304 78.2962ZM64.1163 66.5245L64.9715 68.3325L64.9715 68.3324L64.1163 66.5245ZM71.0281 64.8818L70.8308 62.8915L70.8308 62.8915L71.0281 64.8818ZM79.0196 64.5388L78.9872 62.5391L78.9871 62.5391L79.0196 64.5388ZM89.0177 63.9023L88.6666 61.9333L88.6666 61.9333L89.0177 63.9023ZM94.824 60.9865L93.1428 59.9032L93.1427 59.9034L94.824 60.9865ZM94.985 53.9601L93.1013 54.632L93.1013 54.632L94.985 53.9601ZM90.1819 44.9119L88.4742 45.9529L88.4757 45.9554L90.1819 44.9119ZM90.0949 44.7692L91.8026 43.7281L91.8026 43.7281L90.0949 44.7692ZM86.4949 38.4745L84.7029 39.3626L84.7029 39.3626L86.4949 38.4745ZM84.4028 32.0593L86.3927 31.8588L86.3927 31.8587L84.4028 32.0593ZM90.1149 14.3164L88.4283 13.2416L88.4282 13.2417L90.1149 14.3164ZM93.6791 8.03067L95.5197 8.81299L95.5197 8.81299L93.6791 8.03067ZM94.8398 2.81823L96.8398 2.82091L96.8398 2.82091L94.8398 2.81823ZM99.4798 2.82445C99.4823 0.990872 97.9978 -0.497537 96.1643 -0.499997L96.1589 3.5C95.7833 3.4995 95.4793 3.19464 95.4798 2.81909L99.4798 2.82445ZM97.9494 9.84565C98.846 7.73604 99.4763 5.41143 99.4798 2.82445L95.4798 2.81909C95.4772 4.73984 95.013 6.52845 94.2681 8.28101L97.9494 9.84565ZM94.1203 16.665C95.4401 14.5927 96.907 12.2981 97.9494 9.84565L94.2681 8.28101C93.3777 10.376 92.0997 12.3914 90.7465 14.5163L94.1203 16.665ZM94.079 16.7298L94.1203 16.665L90.7465 14.5162L90.7052 14.5811L94.079 16.7298ZM89.0194 31.5939C88.4309 25.757 90.9768 21.5984 94.0788 16.7302L90.7054 14.5807C87.6555 19.3672 84.2958 24.6186 85.0396 31.9951L89.0194 31.5939ZM90.6524 36.4142C89.6978 34.4879 89.1511 32.9006 89.0194 31.594L85.0395 31.995C85.2419 34.0027 86.0294 36.0939 87.0684 38.1903L90.6524 36.4142ZM94.0876 42.4045C92.7856 40.2688 91.5863 38.2987 90.6524 36.4142L87.0684 38.1903C88.0946 40.2611 89.3919 42.3863 90.6722 44.4866L94.0876 42.4045ZM94.1593 42.522L94.1411 42.4923L90.729 44.5798L90.7472 44.6094L94.1593 42.522ZM99.3554 52.4014C98.1577 49.0433 96.03 45.5806 94.1594 42.5222L90.747 44.6092C92.6754 47.762 94.5566 50.8538 95.5878 53.7451L99.3554 52.4014ZM98.7246 63.4995C101.087 59.8331 100.57 55.8071 99.3554 52.4014L95.5878 53.7451C96.6206 56.6407 96.747 59.1838 95.3622 61.3329L98.7246 63.4995ZM89.8323 68.4702C93.0535 67.8958 96.6821 66.6701 98.7247 63.4993L95.3621 61.3331C94.2639 63.0379 92.0931 64.0039 89.1301 64.5323L89.8323 68.4702ZM79.0949 69.1782C82.6303 69.1209 86.5113 69.0625 89.8323 68.4702L89.1301 64.5323C86.1881 65.057 82.6529 65.12 79.03 65.1788L79.0949 69.1782ZM71.4857 69.4992C73.7991 69.2699 76.367 69.2226 79.095 69.1782L79.0299 65.1788C76.3349 65.2226 73.598 65.2702 71.0912 65.5187L71.4857 69.4992ZM66.1004 70.7189C67.3506 70.1276 69.1426 69.7314 71.4857 69.4992L71.0912 65.5187C68.5908 65.7665 66.2593 66.2188 64.39 67.1031L66.1004 70.7189ZM58.8506 79.9893C60.389 75.9837 61.6892 72.8054 66.1004 70.7189L64.39 67.103C58.4325 69.921 56.6707 74.5087 55.1166 78.5552L58.8506 79.9893ZM58.8478 79.9966L58.8493 79.9927L55.1179 78.5518L55.1163 78.5558L58.8478 79.9966ZM58.8054 80.1059L58.8468 79.9991L55.1173 78.5533L55.0759 78.6601L58.8054 80.1059ZM55.3453 86.7881C57.0543 84.6662 58.0179 82.1376 58.8055 80.1059L55.0759 78.6601C54.2501 80.7903 53.4851 82.7208 52.2301 84.279L55.3453 86.7881ZM47.0819 91.5423C50.8598 90.7994 53.4741 89.1113 55.3453 86.7881L52.2301 84.279C50.9798 85.8313 49.2137 87.0465 46.3101 87.6174L47.0819 91.5423ZM43.1837 88.9253C43.5375 90.7244 45.2828 91.8961 47.0819 91.5423L46.3101 87.6174C46.6786 87.545 47.0361 87.785 47.1086 88.1535L43.1837 88.9253ZM45.8008 85.0271C44.0016 85.3808 42.8299 87.1261 43.1837 88.9253L47.1086 88.1535C47.181 88.522 46.941 88.8794 46.5726 88.9519L45.8008 85.0271ZM50.174 82.623C49.3332 83.6669 48.1268 84.5697 45.8008 85.0271L46.5725 88.9519C49.7735 88.3224 51.8279 86.9464 53.2892 85.1321L50.174 82.623ZM52.6554 77.6C51.7807 79.856 51.1479 81.4139 50.174 82.623L53.2892 85.1321C54.7235 83.3514 55.5598 81.174 56.3849 79.0461L52.6554 77.6ZM52.6565 77.5971C52.6562 77.5979 52.656 77.5986 52.6559 77.5988C52.6558 77.599 52.6559 77.5987 52.6561 77.5984L56.3842 79.0477C56.3846 79.0469 56.3848 79.0462 56.3849 79.0461C56.385 79.0458 56.3849 79.0461 56.3847 79.0464L52.6565 77.5971ZM52.6632 77.5796L52.6534 77.6052L56.3878 79.0384L56.3977 79.0128L52.6632 77.5796ZM63.2612 64.7166C56.3012 68.0087 54.2281 73.505 52.6634 77.5792L56.3975 79.0133C57.9422 74.9912 59.5529 70.8955 64.9715 68.3325L63.2612 64.7166ZM70.8308 62.8915C68.2254 63.1498 65.5385 63.6393 63.2611 64.7166L64.9715 68.3324C66.6304 67.5477 68.7786 67.1145 71.2253 66.872L70.8308 62.8915ZM78.9871 62.5391C76.3132 62.5826 73.4651 62.6305 70.8308 62.8915L71.2253 66.872C73.6664 66.6301 76.3459 66.5826 79.0521 66.5386L78.9871 62.5391ZM88.6666 61.9333C85.9753 62.4133 82.6696 62.4794 78.9872 62.5391L79.0521 66.5386C82.6448 66.4803 86.2978 66.4189 89.3689 65.8712L88.6666 61.9333ZM93.1427 59.9034C92.667 60.6419 91.4563 61.4358 88.6666 61.9333L89.3688 65.8712C92.4204 65.327 95.0863 64.2725 96.5054 62.0696L93.1427 59.9034ZM93.1013 54.632C94.0107 57.1818 93.8857 58.7503 93.1428 59.9032L96.5052 62.0698C98.2216 59.4063 97.9643 56.3599 96.8688 53.2883L93.1013 54.632ZM88.4757 45.9554C90.451 49.1849 92.1768 52.04 93.1013 54.632L96.8688 53.2883C95.7772 50.2277 93.8023 46.9981 91.8881 43.8683L88.4757 45.9554ZM84.7029 39.3626C85.7808 41.5376 87.1291 43.7466 88.3872 45.8102L91.8026 43.7281C90.5249 41.6323 89.2731 39.5762 88.287 37.5864L84.7029 39.3626ZM82.4129 32.2599C82.6617 34.7295 83.6079 37.153 84.7029 39.3626L88.287 37.5864C87.2768 35.548 86.571 33.6281 86.3927 31.8588L82.4129 32.2599ZM88.4282 13.2417C85.4173 17.9667 81.5715 23.9152 82.4129 32.26L86.3927 31.8587C85.7056 25.0442 88.7509 20.1785 91.8016 15.3912L88.4282 13.2417ZM88.4787 13.1625L88.4283 13.2416L91.8015 15.3913L91.852 15.3122L88.4787 13.1625ZM88.478 13.1636C88.4779 13.1637 88.4781 13.1635 88.478 13.1636C88.478 13.1636 88.478 13.1636 88.478 13.1636C88.478 13.1636 88.478 13.1636 88.478 13.1636C88.478 13.1636 88.478 13.1636 88.478 13.1636C88.478 13.1636 88.478 13.1636 88.478 13.1636C88.478 13.1636 88.478 13.1636 88.478 13.1636C88.478 13.1636 88.478 13.1636 88.478 13.1636C88.478 13.1636 88.478 13.1636 88.478 13.1636C88.478 13.1636 88.478 13.1636 88.478 13.1636C88.478 13.1636 88.478 13.1636 88.478 13.1636C88.478 13.1636 88.478 13.1636 88.478 13.1636C88.478 13.1636 88.478 13.1636 88.478 13.1636C88.478 13.1636 88.478 13.1636 88.478 13.1636C88.478 13.1636 88.478 13.1636 88.478 13.1636C88.478 13.1636 88.478 13.1636 88.478 13.1636C88.478 13.1636 88.478 13.1636 88.478 13.1636C88.478 13.1636 88.478 13.1636 88.478 13.1636C88.478 13.1636 88.478 13.1636 88.478 13.1636C88.478 13.1636 88.478 13.1636 88.478 13.1636C91.239 12.55 91.8526 15.3111 91.8526 15.3111C91.8526 15.3111 91.8526 15.3111 91.8526 15.3111C91.8526 15.3111 91.8526 15.3111 91.8526 15.3111C91.8526 15.3111 91.8526 15.3111 91.8526 15.3111C91.8526 15.3111 91.8526 15.3111 91.8526 15.3111C91.8526 15.3111 91.8526 15.3111 91.8526 15.3111C91.8527 15.3111 91.8527 15.3111 91.8527 15.3111C91.8527 15.3111 91.8527 15.3111 91.8527 15.3111C91.8527 15.3111 91.8527 15.3111 91.8527 15.3111C91.8527 15.3111 91.8527 15.3111 91.8527 15.3111C91.8527 15.3111 91.8527 15.3111 91.8527 15.3111C91.8527 15.3111 91.8527 15.3111 91.8527 15.3111C91.8527 15.3111 91.8527 15.3111 91.8527 15.3111C91.8527 15.3111 91.8527 15.3111 91.8527 15.3111C91.8527 15.3111 91.8527 15.3111 91.8527 15.3111C91.8527 15.3111 91.8527 15.3111 91.8527 15.3111C91.8527 15.3111 91.8527 15.3111 91.8527 15.3111C91.8527 15.3111 91.8527 15.3111 91.8527 15.3111C91.8527 15.3111 91.8527 15.3111 91.8527 15.311C91.8527 15.311 91.2391 12.55 88.478 13.1636C88.478 13.1636 88.478 13.1636 88.478 13.1635C88.478 13.1636 88.478 13.1636 88.478 13.1636C88.478 13.1636 88.478 13.1636 88.478 13.1636C88.478 13.1636 88.478 13.1636 88.478 13.1636C88.478 13.1636 88.478 13.1636 88.478 13.1636C88.478 13.1636 88.478 13.1636 88.478 13.1636C88.478 13.1636 88.478 13.1636 88.478 13.1636C88.478 13.1636 88.478 13.1636 88.478 13.1636C88.478 13.1636 88.478 13.1636 88.478 13.1636C88.478 13.1636 88.478 13.1636 88.478 13.1636C88.478 13.1636 88.478 13.1636 88.478 13.1636C88.478 13.1636 88.478 13.1635 88.478 13.1636L91.8526 15.3111C91.8527 15.311 91.8526 15.3112 91.8527 15.3111C91.8527 15.3111 91.8527 15.3111 91.8527 15.3111C91.8527 15.3111 91.8527 15.3111 91.8527 15.3111C91.8527 15.3111 91.8527 15.3111 91.8527 15.3111C91.8527 15.3111 91.8527 15.3111 91.8527 15.3111C91.8527 15.3111 91.8527 15.3111 91.8527 15.3111C91.8527 15.3111 91.8527 15.3111 91.8527 15.3111C91.8527 15.3111 91.8527 15.3111 91.8527 15.3111C91.8527 15.3111 91.8527 15.3111 91.8527 15.3111C91.8527 15.3111 91.8527 15.3111 91.8527 15.3111C91.8527 15.3111 91.8527 15.3111 91.8527 15.3111C91.8527 15.3111 91.8527 15.3111 91.8527 15.3111C91.8527 15.3111 91.8527 15.3111 91.8527 15.3111C91.8527 15.3111 91.8527 15.3111 91.8527 15.3111C91.8527 15.3111 91.8527 15.3111 91.8527 15.3111C91.8527 15.3111 91.8527 15.3111 91.8527 15.3111C91.8527 15.3111 91.8527 15.3111 91.8527 15.3111C91.8527 15.3111 91.8527 15.3111 91.8527 15.3111C91.8527 15.3111 91.8527 15.3111 91.8527 15.3111C89.0916 15.9246 88.478 13.1636 88.478 13.1636C88.478 13.1636 88.478 13.1636 88.478 13.1636C88.478 13.1636 88.478 13.1636 88.478 13.1636C88.478 13.1636 88.478 13.1636 88.478 13.1636C88.478 13.1636 88.478 13.1636 88.478 13.1636C88.478 13.1636 88.478 13.1636 88.478 13.1636C88.478 13.1636 88.478 13.1636 88.478 13.1636C88.478 13.1636 88.478 13.1636 88.478 13.1636C88.478 13.1636 88.478 13.1636 88.478 13.1636C88.478 13.1636 88.478 13.1636 88.478 13.1636C88.478 13.1636 88.478 13.1636 88.478 13.1636C88.478 13.1636 88.478 13.1636 88.478 13.1636C88.478 13.1636 88.478 13.1636 88.478 13.1636C88.478 13.1636 88.478 13.1636 88.478 13.1636C88.478 13.1636 88.478 13.1636 88.478 13.1636C88.478 13.1636 88.478 13.1636 88.478 13.1636C88.478 13.1636 88.478 13.1636 88.478 13.1636C88.478 13.1636 88.478 13.1636 88.478 13.1636C88.478 13.1636 88.478 13.1636 88.478 13.1636C88.478 13.1636 89.0916 15.9247 91.8526 15.3111C91.8526 15.3111 91.8526 15.3111 91.8526 15.3111C91.8526 15.3111 91.8526 15.3111 91.8526 15.3111C91.8526 15.3111 91.8526 15.3111 91.8526 15.3111C91.8526 15.3111 91.8526 15.3111 91.8526 15.3111C91.8526 15.3111 91.8526 15.3111 91.8526 15.3111C91.8526 15.3111 91.8526 15.3111 91.8526 15.3111C91.8526 15.3111 91.8526 15.3111 91.8526 15.3111C91.8526 15.3111 91.8526 15.3111 91.8526 15.3111C91.8526 15.3111 91.8526 15.3111 91.8526 15.3111C91.8526 15.3111 91.8526 15.3111 91.8526 15.3111C91.8526 15.3111 91.8526 15.3111 91.8526 15.3111C91.8527 15.311 91.8526 15.3112 91.8526 15.3111L88.478 13.1636ZM91.8384 7.24834C91.0396 9.12773 89.8721 10.9744 88.4784 13.163L91.8523 15.3117C93.2074 13.1838 94.5678 11.0526 95.5197 8.81299L91.8384 7.24834ZM92.8398 2.81555C92.8378 4.29671 92.4831 5.73159 91.8384 7.24834L95.5197 8.81299C96.3162 6.93899 96.8369 4.96815 96.8398 2.82091L92.8398 2.81555ZM96.1643 -0.499997C94.3307 -0.502457 92.8423 0.981959 92.8398 2.81555L96.8398 2.82091C96.8393 3.19647 96.5344 3.5005 96.1589 3.5L96.1643 -0.499997ZM94.1428 42.495L94.0876 42.4045L90.6722 44.4866L90.7274 44.5772L94.1428 42.495ZM88.3872 45.8102L88.4742 45.9529L91.8896 43.8708L91.8026 43.7281L88.3872 45.8102Z" fill="white" mask="url(#path-15-outside-1_6316_29380)"/>
<path d="M90.9468 18.1229L90.9466 18.1232M90.9468 18.1229L90.503 19.019C90.5049 19.0184 90.5069 19.0177 90.5088 19.0171L90.9466 18.1232L90.9466 18.1232M90.9468 18.1229L90.9466 18.1232M90.9468 18.1229L90.5095 19.0168M90.9466 18.1232L90.5095 19.0168M90.5095 19.0168C90.9715 18.8591 91.219 18.5955 91.3452 18.3183L90.5095 19.0168ZM90.4298 18.9833L90.5029 19.019L90.503 19.0191C90.503 19.0191 90.503 19.0191 90.5031 19.0191L90.5069 19.021C93.1145 20.2983 95.102 21.2951 96.5531 22.7192C97.8752 24.0167 98.8385 25.7716 98.9879 28.804C99.0763 30.646 98.1107 32.7102 96.0546 35.1257C94.0231 37.5123 91.2645 39.8598 88.4009 42.2931L88.4003 42.2936L88.4001 42.2938L88.3989 42.2948L88.193 42.4695L88.1929 42.4695L88.0975 42.5504C84.7344 45.4028 81.2157 48.3871 79.3006 51.6153C77.1029 55.2962 76.1417 60.0583 75.32 64.1292L75.3014 64.2209L75.2439 64.5059C75.2439 64.506 75.2439 64.5061 75.2438 64.5062C74.6248 67.5643 74.0539 70.3669 73.1723 72.6224C72.284 74.8951 71.2687 76.1091 70.0893 76.596L70.089 76.5961L70.0875 76.5967L70.0867 76.597C67.5205 77.66 65.6852 77.668 64.0718 77.2393C62.3539 76.7829 60.7347 75.8049 58.5525 74.4437C58.4822 74.3856 58.3891 74.3097 58.2742 74.2187L57.6889 74.9571L58.2742 74.2187C58.0147 74.013 57.6432 73.729 57.1749 73.3982C56.2414 72.739 54.906 71.8818 53.2906 71.0874C50.1149 69.5259 45.5551 68.0607 40.7744 69.2183C39.529 69.5198 38.7639 70.7737 39.0655 72.019C39.367 73.2644 40.6209 74.0295 41.8662 73.728C45.1233 72.9394 48.4961 73.9005 51.2431 75.2513C52.5892 75.9132 53.7129 76.6338 54.4983 77.1884L55.0751 76.3716L54.4983 77.1884C54.8893 77.4646 55.1921 77.6965 55.3921 77.855L56.0132 77.0713L55.3921 77.855C55.4918 77.934 55.5657 77.9946 55.6117 78.0329C55.6347 78.052 55.6508 78.0656 55.6597 78.0732L55.6634 78.0763L55.6645 78.0772L55.665 78.0777L55.6701 78.082L55.7424 78.1449L55.8018 78.1965L55.8686 78.2382L56.0682 78.3628L56.0682 78.3628L56.1292 78.4008C58.1909 79.688 60.3929 81.0628 62.8802 81.7237C65.5776 82.4404 68.4553 82.2947 71.8606 80.8846C74.7949 79.6729 76.4433 76.9996 77.4939 74.3115C78.5298 71.6613 79.1684 68.5059 79.7538 65.6135L79.7641 65.5628L79.7641 65.5628L79.7966 65.4022L79.7966 65.4019C80.6829 61.0158 81.5153 56.9555 83.2862 53.9911L83.2868 53.9901L83.289 53.9864L83.2901 53.9845C84.7738 51.4824 87.7155 48.9594 91.4036 45.8306L91.4042 45.83L91.5048 45.7446L91.5405 45.7143C94.2903 43.3777 97.3022 40.8185 99.5879 38.1333C101.886 35.4333 103.797 32.2132 103.623 28.5803L103.623 28.5799L103.622 28.5785L103.622 28.5778C103.42 24.4681 102.02 21.583 99.8031 19.4076C97.768 17.4104 95.1296 16.1183 92.7355 14.9459L92.6657 14.9117L92.5467 14.8534L92.5462 14.8532C87.811 12.5368 83.3549 10.2942 81.3381 3.97906C80.9483 2.75849 79.6429 2.08502 78.4223 2.47482C77.2017 2.86463 76.5283 4.17009 76.9181 5.39066C79.5614 13.6675 85.6732 16.6568 90.3789 18.9584L90.4298 18.9833ZM90.5095 19.0169C90.9716 18.8593 91.2191 18.5956 91.3453 18.3184C93.7403 19.4947 95.7479 20.5279 97.2535 22.0055L90.5095 19.0169ZM90.4714 18.8982L90.8692 18.085L90.4714 18.8982Z" fill="url(#paint2_linear_6316_29380)" stroke="white" stroke-width="2" stroke-miterlimit="10" stroke-linecap="round"/>
</g>
<path d="M51.769 85.7957L45.3867 71.7868M54.36 82.1508L49.2512 72.4163M65.3388 79.794L59.5713 71.6111M72.0286 78.1691L63.8164 68.2004M75.7028 72.4894L69.7889 66.3852M87.5306 65.4777L78.8061 59.2417M95.3475 62.5061L80.6506 54.0158M96.6943 55.0259L84.0906 49.3023M95.1426 39.4506L87.5745 37.6794M100.325 32.9658L85.6423 30.9604M100.793 25.4417L86.3303 24.783M95.772 19.1911L88.8774 19.4546M93.0493 12.1208L84.925 13.0869M95.772 5.95801L81.0312 8.81249" stroke="url(#paint3_linear_6316_29380)" stroke-width="1.65" stroke-miterlimit="10"/>
<path d="M46.4414 88.2845C52.5456 87.0842 54.0826 83.1025 55.7514 78.7988C57.3031 74.7586 58.9865 70.411 64.6808 67.7176C68.2087 66.0488 73.6395 65.9463 79.0411 65.8585C86.2578 65.7414 93.416 65.6096 95.9338 61.7012C99.0371 56.8852 95.1579 50.5175 91.308 44.223C88.7024 39.9486 86.0968 35.7034 85.7162 31.9267C84.9989 24.8125 88.2194 19.7476 91.2788 14.9462C92.6408 12.8076 93.9681 10.7252 94.894 8.54682C95.6646 6.73359 96.1571 4.85386 96.1599 2.81982" stroke="#858BF6" stroke-width="3" stroke-miterlimit="10" stroke-linecap="round"/>
<path d="M79.1284 4.68457C81.4705 12.0184 86.7989 14.624 91.5271 16.9369C96.5773 19.4108 100.954 21.548 101.306 28.6915C101.569 34.1663 95.5526 39.2604 89.9022 44.0618C86.3304 47.092 83.0222 49.8879 81.2949 52.8009C79.2748 56.1824 78.3818 60.691 77.5182 64.9654C76.3032 70.9672 75.0882 77.0421 70.9748 78.7402C65.0023 81.214 61.5477 79.0476 57.1855 76.3248C57.1855 76.3248 49.3581 69.5268 41.3206 71.4728" stroke="#858BF6" stroke-width="3" stroke-miterlimit="10" stroke-linecap="round"/>
</g>
<path d="M149 48.475H152.225V46.8434C152.225 45.6039 152.377 44.6047 152.681 43.8458C152.984 43.0616 153.389 42.4672 153.895 42.0624C154.401 41.6324 154.97 41.3541 155.602 41.2277C156.26 41.0759 156.943 41 157.651 41C159.043 41 160.054 41.0885 160.687 41.2656V44.6426C160.409 44.5667 160.105 44.5161 159.776 44.4908C159.473 44.4403 159.106 44.415 158.676 44.415C158.094 44.415 157.588 44.5541 157.158 44.8323C156.753 45.1106 156.551 45.6545 156.551 46.4639V48.475H160.231V51.7002H156.551V68.092H152.225V51.7002H149V48.475Z" fill="white"/>
<path d="M177.816 63.7285C177.816 64.2597 177.879 64.6391 178.006 64.8668C178.157 65.0944 178.436 65.2083 178.84 65.2083C178.967 65.2083 179.119 65.2083 179.296 65.2083C179.473 65.2083 179.675 65.183 179.903 65.1324V68.13C179.751 68.1806 179.549 68.2311 179.296 68.2817C179.068 68.3576 178.828 68.4209 178.575 68.4715C178.322 68.5221 178.069 68.56 177.816 68.5853C177.563 68.6106 177.348 68.6232 177.171 68.6232C176.285 68.6232 175.552 68.4462 174.97 68.092C174.388 67.7379 174.009 67.1181 173.832 66.2328C172.972 67.0675 171.909 67.6746 170.644 68.0541C169.405 68.4335 168.203 68.6232 167.04 68.6232C166.154 68.6232 165.307 68.4968 164.497 68.2438C163.688 68.0161 162.967 67.6746 162.335 67.2193C161.728 66.7387 161.234 66.1442 160.855 65.4359C160.501 64.7024 160.324 63.8549 160.324 62.8937C160.324 61.6795 160.539 60.6929 160.969 59.9341C161.424 59.1752 162.006 58.5807 162.714 58.1507C163.448 57.7207 164.257 57.4171 165.143 57.24C166.053 57.0377 166.964 56.8859 167.874 56.7847C168.659 56.6329 169.405 56.5317 170.113 56.4812C170.821 56.4053 171.441 56.2914 171.972 56.1397C172.529 55.9879 172.959 55.7602 173.263 55.4567C173.591 55.1278 173.756 54.6472 173.756 54.0148C173.756 53.4583 173.617 53.003 173.338 52.6488C173.085 52.2947 172.757 52.0291 172.352 51.852C171.972 51.6496 171.542 51.5231 171.062 51.4725C170.581 51.3967 170.126 51.3587 169.696 51.3587C168.482 51.3587 167.482 51.6117 166.698 52.1176C165.914 52.6235 165.471 53.4077 165.37 54.4701H161.045C161.12 53.2053 161.424 52.1555 161.955 51.3208C162.486 50.486 163.157 49.8157 163.966 49.3097C164.801 48.8038 165.737 48.4497 166.774 48.2473C167.811 48.0449 168.874 47.9438 169.961 47.9438C170.923 47.9438 171.871 48.0449 172.807 48.2473C173.743 48.4497 174.578 48.7785 175.312 49.2339C176.07 49.6892 176.677 50.2836 177.133 51.0172C177.588 51.7255 177.816 52.5982 177.816 53.6354V63.7285ZM173.49 58.2645C172.832 58.6946 172.023 58.9602 171.062 59.0613C170.101 59.1372 169.139 59.2637 168.178 59.4408C167.723 59.5167 167.28 59.6305 166.85 59.7823C166.42 59.9088 166.041 60.0985 165.712 60.3514C165.383 60.5791 165.117 60.8953 164.915 61.3C164.738 61.6795 164.649 62.1475 164.649 62.704C164.649 63.1846 164.788 63.5893 165.067 63.9182C165.345 64.247 165.674 64.5126 166.053 64.715C166.458 64.8921 166.888 65.0186 167.343 65.0944C167.824 65.1703 168.254 65.2083 168.633 65.2083C169.114 65.2083 169.633 65.145 170.189 65.0186C170.746 64.8921 171.264 64.6771 171.745 64.3735C172.251 64.07 172.668 63.6905 172.997 63.2352C173.326 62.7546 173.49 62.1728 173.49 61.4898V58.2645Z" fill="white"/>
<path d="M194.195 55.0393C194.018 53.8251 193.525 52.9144 192.715 52.3073C191.931 51.6749 190.932 51.3587 189.717 51.3587C189.161 51.3587 188.567 51.4599 187.934 51.6623C187.302 51.8393 186.72 52.1935 186.189 52.7247C185.657 53.2306 185.215 53.9516 184.861 54.8875C184.507 55.7982 184.329 56.9997 184.329 58.4922C184.329 59.3017 184.418 60.1111 184.595 60.9206C184.797 61.7301 185.101 62.451 185.506 63.0834C185.936 63.7158 186.48 64.2344 187.137 64.6391C187.795 65.0186 188.592 65.2083 189.528 65.2083C190.793 65.2083 191.83 64.8162 192.639 64.032C193.474 63.2478 193.993 62.1475 194.195 60.7309H198.52C198.116 63.2858 197.142 65.2462 195.599 66.6122C194.081 67.9529 192.057 68.6232 189.528 68.6232C187.985 68.6232 186.619 68.3703 185.43 67.8644C184.266 67.3331 183.28 66.6249 182.47 65.7395C181.661 64.8288 181.041 63.7538 180.611 62.5143C180.206 61.2747 180.004 59.9341 180.004 58.4922C180.004 57.025 180.206 55.6464 180.611 54.3563C181.016 53.0662 181.623 51.9532 182.432 51.0172C183.242 50.056 184.241 49.3097 185.43 48.7785C186.644 48.222 188.061 47.9438 189.68 47.9438C190.818 47.9438 191.893 48.0955 192.905 48.3991C193.942 48.6773 194.853 49.1074 195.637 49.6892C196.446 50.271 197.104 51.0046 197.61 51.8899C198.116 52.7753 198.419 53.8251 198.52 55.0393H194.195Z" fill="white"/>
<path d="M198.546 48.475H201.809V42.5936H206.134V48.475H210.043V51.7002H206.134V62.1728C206.134 62.6281 206.147 63.0202 206.172 63.349C206.223 63.6779 206.312 63.9561 206.438 64.1838C206.59 64.4115 206.805 64.5885 207.083 64.715C207.361 64.8162 207.741 64.8668 208.221 64.8668C208.525 64.8668 208.829 64.8668 209.132 64.8668C209.436 64.8415 209.739 64.7909 210.043 64.715V68.0541C209.562 68.1047 209.094 68.1553 208.639 68.2059C208.183 68.2564 207.715 68.2817 207.235 68.2817C206.097 68.2817 205.173 68.1806 204.465 67.9782C203.782 67.7505 203.238 67.4343 202.833 67.0296C202.454 66.5996 202.188 66.0683 202.037 65.4359C201.91 64.8035 201.834 64.0826 201.809 63.2731V51.7002H198.546V48.475Z" fill="white"/>
<path d="M220.629 68.6232C219.061 68.6232 217.657 68.3703 216.418 67.8644C215.203 67.3331 214.166 66.6122 213.306 65.7015C212.471 64.7909 211.826 63.7032 211.371 62.4384C210.941 61.1736 210.726 59.7823 210.726 58.2645C210.726 56.7721 210.941 55.3934 211.371 54.1286C211.826 52.8638 212.471 51.7761 213.306 50.8654C214.166 49.9548 215.203 49.2465 216.418 48.7406C217.657 48.2094 219.061 47.9438 220.629 47.9438C222.198 47.9438 223.589 48.2094 224.803 48.7406C226.043 49.2465 227.08 49.9548 227.915 50.8654C228.775 51.7761 229.42 52.8638 229.85 54.1286C230.305 55.3934 230.533 56.7721 230.533 58.2645C230.533 59.7823 230.305 61.1736 229.85 62.4384C229.42 63.7032 228.775 64.7909 227.915 65.7015C227.08 66.6122 226.043 67.3331 224.803 67.8644C223.589 68.3703 222.198 68.6232 220.629 68.6232ZM220.629 65.2083C221.591 65.2083 222.425 65.0059 223.134 64.6012C223.842 64.1964 224.424 63.6652 224.879 63.0075C225.334 62.3498 225.663 61.6162 225.866 60.8068C226.093 59.972 226.207 59.1246 226.207 58.2645C226.207 57.4298 226.093 56.595 225.866 55.7602C225.663 54.9255 225.334 54.1919 224.879 53.5595C224.424 52.9018 223.842 52.3706 223.134 51.9658C222.425 51.5611 221.591 51.3587 220.629 51.3587C219.668 51.3587 218.833 51.5611 218.125 51.9658C217.417 52.3706 216.835 52.9018 216.38 53.5595C215.924 54.1919 215.583 54.9255 215.355 55.7602C215.153 56.595 215.052 57.4298 215.052 58.2645C215.052 59.1246 215.153 59.972 215.355 60.8068C215.583 61.6162 215.924 62.3498 216.38 63.0075C216.835 63.6652 217.417 64.1964 218.125 64.6012C218.833 65.0059 219.668 65.2083 220.629 65.2083Z" fill="white"/>
<path d="M232.611 48.475H236.671V52.2694H236.747C236.873 51.7382 237.114 51.2196 237.468 50.7137C237.847 50.2077 238.29 49.7524 238.796 49.3477C239.327 48.9176 239.909 48.5762 240.541 48.3232C241.174 48.0702 241.819 47.9438 242.477 47.9438C242.982 47.9438 243.324 47.9564 243.501 47.9817C243.703 48.007 243.906 48.0323 244.108 48.0576V52.2314C243.805 52.1808 243.488 52.1429 243.16 52.1176C242.856 52.067 242.552 52.0417 242.249 52.0417C241.515 52.0417 240.82 52.1935 240.162 52.497C239.53 52.7753 238.973 53.2053 238.492 53.7871C238.012 54.3436 237.632 55.0393 237.354 55.874C237.076 56.7088 236.937 57.6701 236.937 58.7578V68.092H232.611V48.475Z" fill="white"/>
<path d="M205.306 69.152H209.632V79.1692H209.707C210.011 78.6886 210.378 78.2586 210.808 77.8791C211.238 77.4997 211.706 77.1835 212.212 76.9305C212.743 76.6523 213.287 76.4499 213.843 76.3234C214.425 76.1716 214.994 76.0958 215.551 76.0958C217.094 76.0958 218.435 76.374 219.573 76.9305C220.737 77.4617 221.698 78.208 222.457 79.1692C223.216 80.1052 223.785 81.2055 224.164 82.4703C224.544 83.7351 224.733 85.0885 224.733 86.5304C224.733 87.8458 224.556 89.1232 224.202 90.3627C223.873 91.6022 223.355 92.7026 222.646 93.6638C221.963 94.5998 221.091 95.3587 220.028 95.9405C218.966 96.497 217.714 96.7752 216.272 96.7752C215.614 96.7752 214.944 96.7246 214.261 96.6235C213.603 96.5476 212.971 96.3831 212.364 96.1302C211.756 95.8772 211.2 95.5484 210.694 95.1436C210.213 94.7389 209.809 94.2077 209.48 93.55H209.404V96.244H205.306V69.152ZM220.408 86.4545C220.408 85.5691 220.294 84.709 220.066 83.8743C219.839 83.0395 219.497 82.3059 219.042 81.6735C218.586 81.0158 218.017 80.4973 217.334 80.1178C216.651 79.7131 215.867 79.5107 214.982 79.5107C213.16 79.5107 211.782 80.1431 210.846 81.4079C209.935 82.6727 209.48 84.3549 209.48 86.4545C209.48 87.441 209.594 88.3643 209.821 89.2244C210.074 90.0592 210.441 90.7801 210.922 91.3872C211.402 91.9943 211.971 92.4749 212.629 92.8291C213.312 93.1832 214.096 93.3603 214.982 93.3603C215.968 93.3603 216.803 93.1579 217.486 92.7532C218.169 92.3484 218.725 91.8299 219.156 91.1975C219.611 90.5398 219.927 89.8062 220.104 88.9967C220.306 88.1619 220.408 87.3145 220.408 86.4545Z" fill="white"/>
<path d="M235.863 96.7752C234.295 96.7752 232.891 96.5223 231.652 96.0164C230.437 95.4851 229.4 94.7642 228.54 93.8535C227.705 92.9429 227.06 91.8552 226.605 90.5904C226.175 89.3256 225.96 87.9343 225.96 86.4165C225.96 84.9241 226.175 83.5454 226.605 82.2806C227.06 81.0158 227.705 79.9281 228.54 79.0174C229.4 78.1068 230.437 77.3985 231.652 76.8926C232.891 76.3614 234.295 76.0958 235.863 76.0958C237.432 76.0958 238.823 76.3614 240.037 76.8926C241.277 77.3985 242.314 78.1068 243.149 79.0174C244.009 79.9281 244.654 81.0158 245.084 82.2806C245.539 83.5454 245.767 84.9241 245.767 86.4165C245.767 87.9343 245.539 89.3256 245.084 90.5904C244.654 91.8552 244.009 92.9429 243.149 93.8535C242.314 94.7642 241.277 95.4851 240.037 96.0164C238.823 96.5223 237.432 96.7752 235.863 96.7752ZM235.863 93.3603C236.825 93.3603 237.659 93.1579 238.368 92.7532C239.076 92.3484 239.658 91.8172 240.113 91.1595C240.568 90.5018 240.897 89.7682 241.1 88.9588C241.327 88.124 241.441 87.2766 241.441 86.4165C241.441 85.5818 241.327 84.747 241.1 83.9122C240.897 83.0775 240.568 82.3439 240.113 81.7115C239.658 81.0538 239.076 80.5226 238.368 80.1178C237.659 79.7131 236.825 79.5107 235.863 79.5107C234.902 79.5107 234.067 79.7131 233.359 80.1178C232.651 80.5226 232.069 81.0538 231.614 81.7115C231.158 82.3439 230.817 83.0775 230.589 83.9122C230.387 84.747 230.286 85.5818 230.286 86.4165C230.286 87.2766 230.387 88.124 230.589 88.9588C230.817 89.7682 231.158 90.5018 231.614 91.1595C232.069 91.8172 232.651 92.3484 233.359 92.7532C234.067 93.1579 234.902 93.3603 235.863 93.3603Z" fill="white"/>
<path d="M256.838 96.7752C255.269 96.7752 253.865 96.5223 252.626 96.0164C251.412 95.4851 250.375 94.7642 249.515 93.8535C248.68 92.9429 248.035 91.8552 247.579 90.5904C247.149 89.3256 246.934 87.9343 246.934 86.4165C246.934 84.9241 247.149 83.5454 247.579 82.2806C248.035 81.0158 248.68 79.9281 249.515 79.0174C250.375 78.1068 251.412 77.3985 252.626 76.8926C253.865 76.3614 255.269 76.0958 256.838 76.0958C258.406 76.0958 259.797 76.3614 261.012 76.8926C262.251 77.3985 263.288 78.1068 264.123 79.0174C264.983 79.9281 265.628 81.0158 266.058 82.2806C266.514 83.5454 266.741 84.9241 266.741 86.4165C266.741 87.9343 266.514 89.3256 266.058 90.5904C265.628 91.8552 264.983 92.9429 264.123 93.8535C263.288 94.7642 262.251 95.4851 261.012 96.0164C259.797 96.5223 258.406 96.7752 256.838 96.7752ZM256.838 93.3603C257.799 93.3603 258.634 93.1579 259.342 92.7532C260.05 92.3484 260.632 91.8172 261.088 91.1595C261.543 90.5018 261.872 89.7682 262.074 88.9588C262.302 88.124 262.416 87.2766 262.416 86.4165C262.416 85.5818 262.302 84.747 262.074 83.9122C261.872 83.0775 261.543 82.3439 261.088 81.7115C260.632 81.0538 260.05 80.5226 259.342 80.1178C258.634 79.7131 257.799 79.5107 256.838 79.5107C255.877 79.5107 255.042 79.7131 254.333 80.1178C253.625 80.5226 253.043 81.0538 252.588 81.7115C252.133 82.3439 251.791 83.0775 251.564 83.9122C251.361 84.747 251.26 85.5818 251.26 86.4165C251.26 87.2766 251.361 88.124 251.564 88.9588C251.791 89.7682 252.133 90.5018 252.588 91.1595C253.043 91.8172 253.625 92.3484 254.333 92.7532C255.042 93.1579 255.877 93.3603 256.838 93.3603Z" fill="white"/>
<path d="M268.933 69.152H273.259V84.5573L281.075 76.627H286.388L278.875 83.8363L287.109 96.244H281.834L275.839 86.7201L273.259 89.2244V96.244H268.933V69.152Z" fill="white"/>
<defs>
<linearGradient id="paint0_linear_6316_29380" x1="73.0906" y1="5.95839" x2="73.0404" y2="77.5375" gradientUnits="userSpaceOnUse">
<stop stop-color="#4B4F88"/>
<stop offset="1" stop-color="#848AEE"/>
</linearGradient>
<linearGradient id="paint1_linear_6316_29380" x1="71.7516" y1="2.82" x2="71.7516" y2="88.2847" gradientUnits="userSpaceOnUse">
<stop stop-color="#848AEE"/>
<stop offset="1" stop-color="#BEC2FF"/>
</linearGradient>
<linearGradient id="paint2_linear_6316_29380" x1="79.2298" y1="4.68457" x2="79.2298" y2="79.8247" gradientUnits="userSpaceOnUse">
<stop stop-color="#848AEE"/>
<stop offset="1" stop-color="#BEC2FF"/>
</linearGradient>
<linearGradient id="paint3_linear_6316_29380" x1="73.0899" y1="5.95801" x2="73" y2="81.5" gradientUnits="userSpaceOnUse">
<stop stop-color="#BEC2FF"/>
<stop offset="1" stop-color="#4A4FA3"/>
</linearGradient>
</defs>
</svg>
